<svg width="15" height="15" viewBox="0 0 15 15" fill="none" xmlns="http://www.w3.org/2000/svg">
<path d="M3.53795 11.8187L0.884487 0.415733H1.20038L7.77085 3.44464L12.3828 5.5827L14.594 6.71111L9.66618 6.88929L12.2565 9.38368L14.3413 11.4623L11.8774 13.4222L6.69683 8.07709L3.53795 11.8187Z" fill="white"/>
<path d="M6.00239 10.2087C5.44643 10.9452 4.9031 11.6579 4.37241 12.3587C3.9428 12.9288 3.52583 13.499 3.08358 14.0454C2.99513 14.1641 2.79297 14.271 2.64134 14.271C2.4139 14.271 2.31281 14.1047 2.26227 13.8791C1.76949 11.2065 1.25143 8.5458 0.733373 5.87324C0.493298 4.63792 0.240587 3.41448 0.0131475 2.17916C-0.0121236 2.01286 0.000511971 1.83469 0.0384186 1.6684C0.139503 1.21703 0.265858 0.777542 0.392214 0.338054C0.493298 -0.0182887 0.607018 -0.0776791 0.973448 0.0886139C2.46444 0.765664 3.9428 1.45459 5.43379 2.1554C8.49159 3.58077 11.562 4.99426 14.6198 6.41963C15.0747 6.63343 15.1 6.7047 14.8094 7.09668C14.544 7.4649 14.2787 7.845 14.026 8.2251C13.9122 8.39139 13.7985 8.46266 13.5837 8.46266C12.9646 8.48641 12.3581 8.53393 11.6757 8.56956C11.7895 8.68834 11.8526 8.75961 11.9285 8.83088C12.7877 9.63859 13.6469 10.4463 14.5061 11.254C14.822 11.551 14.7967 11.5747 14.5566 11.9192C13.887 12.8694 13.0657 13.6534 12.0169 14.2354C11.7137 14.4017 11.423 14.6155 11.1324 14.8174C10.7407 15.0787 10.627 15.0669 10.3111 14.7343C9.30027 13.6771 8.30206 12.62 7.29122 11.5628C6.87424 11.1233 6.45727 10.6839 6.00239 10.2087ZM11.8274 12.6913C12.535 12.2518 13.2299 11.8242 14.0007 11.349C13.8238 11.2184 13.6848 11.1233 13.5584 11.0164C12.1559 9.69798 10.766 8.36763 9.37608 7.03729C9.30027 6.95414 9.26236 6.83536 9.21182 6.72846C9.32554 6.69283 9.43926 6.62156 9.55298 6.62156C10.8671 6.57404 12.1812 6.53841 13.4953 6.4909C13.5837 6.4909 13.6722 6.47902 13.8491 6.45526C9.57825 4.47162 5.39589 2.52362 1.15035 0.551859C1.99693 4.17467 2.83087 7.72622 3.67745 11.3253C3.79117 11.2065 3.85435 11.1352 3.91753 11.0521C4.7262 10.0543 5.52224 9.04468 6.33091 8.04693C6.63417 7.67871 6.81107 7.66683 7.15222 8.01129C8.15043 9.00905 9.16127 10.0187 10.1595 11.0164C10.7154 11.5866 11.2588 12.133 11.8274 12.6913Z" fill="black"/>
</svg>
