<svg width="30" height="30" viewBox="0 0 30 30" fill="none" xmlns="http://www.w3.org/2000/svg">
<path d="M5.99655 12.1588C4.85203 10.2915 3.74631 8.51305 2.67938 6.73463C1.36028 4.57831 1.59306 5.26744 2.07803 2.84436C2.17502 2.3553 2.33021 1.86623 2.4078 1.37717C2.52419 0.510195 3.02856 0.132283 3.70751 0.043362C5.10422 -0.156709 6.30693 0.332354 7.21867 1.57724C8.05281 2.73321 8.86756 3.91141 9.6823 5.0896C10.982 4.17817 12.1459 4.62277 13.2904 5.46752C14.5902 4.44493 15.7541 5.0896 16.8986 5.93435C17.8879 4.97845 19.5562 5.53421 20.5067 6.69017C21.6125 8.02398 22.66 9.40225 23.7463 10.7583C24.7163 11.9587 25.6862 13.1814 26.113 14.7597C26.8113 17.2717 28.0722 19.3169 29.6241 21.2065C30.1479 21.8289 30.0897 21.8289 29.6629 22.518C28.5766 24.3187 27.1605 25.5413 25.3758 26.4083C23.242 27.4531 21.2051 28.698 19.11 29.854C18.7027 30.0763 18.3535 30.0763 18.0819 29.6317C15.9093 26.186 12.9219 24.1853 9.43012 22.9626C6.98589 22.1179 4.56105 21.162 2.17502 20.1839C1.59306 19.9393 1.0499 19.4725 0.584329 18.9612C0.00236925 18.3388 -0.114023 17.5163 0.0993625 16.6715C0.332146 15.7156 0.56493 14.7597 0.797714 13.8038C1.16629 12.3366 1.90344 11.6475 3.26134 11.5586C3.70751 11.5363 4.15368 11.603 4.58045 11.692C5.02662 11.7809 5.43399 11.9587 5.99655 12.1588ZM28.79 21.3398C28.402 20.8285 28.0722 20.4062 27.7424 19.9616C26.7531 18.6278 25.9384 17.1606 25.4922 15.4711C25.1624 14.204 24.6581 13.0702 23.9209 12.0921C22.5824 10.3137 21.2245 8.55751 19.8084 6.86801C19.498 6.4901 18.9355 6.33449 18.4505 6.20111C18.2565 6.15665 17.9073 6.35672 17.7909 6.57902C17.6939 6.73463 17.8297 7.11255 17.9461 7.35708C18.0819 7.64607 18.3341 7.84614 18.5087 8.1129C18.6057 8.29074 18.6445 8.53528 18.7027 8.75758C18.4893 8.71312 18.2565 8.69089 18.0625 8.60197C17.9461 8.55751 17.8685 8.37966 17.7909 8.26851C17.3254 7.6683 16.8792 7.04586 16.4136 6.44564C15.9675 5.86766 15.3855 5.62313 14.7066 5.73428C14.1828 5.8232 13.9888 6.31226 14.2992 6.80132C14.4932 7.11255 14.7453 7.40154 14.9393 7.71276C15.0363 7.8906 15.0557 8.13513 15.1139 8.35743C14.9005 8.31297 14.6678 8.29074 14.4544 8.20182C14.3186 8.13513 14.241 7.95729 14.144 7.82391C13.7366 7.24593 13.3292 6.66794 12.9025 6.11219C12.4369 5.51198 11.8356 5.26745 11.1566 5.3786C10.5164 5.48975 10.3419 6.02327 10.7298 6.60125C10.982 7.0014 11.273 7.35708 11.5252 7.75722C11.6028 7.86837 11.5834 8.06844 11.6222 8.22405C11.4864 8.24628 11.3118 8.35743 11.1954 8.31297C10.982 8.20182 10.788 8.04621 10.6522 7.84614C9.25553 5.84543 7.87822 3.84472 6.50092 1.82177C5.93836 1.02149 5.25941 0.643576 4.46406 0.688036C4.13428 0.710266 3.70751 0.932568 3.53292 1.22156C3.41653 1.3994 3.62992 1.95515 3.80451 2.22192C6.46212 6.33449 9.15854 10.4248 11.8356 14.5152C11.9519 14.7153 11.9713 15.0042 12.0295 15.2265C11.7968 15.2488 11.5446 15.3377 11.3312 15.271C10.7104 15.0709 10.1091 14.8042 9.48831 14.5596C7.97522 13.9372 6.48152 13.337 4.96843 12.7145C4.28947 12.4478 3.61052 12.3366 2.93157 12.6701C1.98103 13.1369 1.76765 14.204 2.52419 15.0042C2.79578 15.3155 3.14495 15.56 3.51353 15.6934C6.03535 16.716 8.55718 17.7386 11.0984 18.65C14.6484 19.9393 17.7715 21.9623 20.2546 25.2079C20.3516 25.3413 20.6619 25.4302 20.7977 25.3413C23.4359 24.0741 26.0742 22.7181 28.79 21.3398Z" fill="black"/>
<path d="M28.79 21.3398C26.0742 22.7181 23.4359 24.0741 20.7783 25.3857C20.6425 25.4524 20.3322 25.3857 20.2352 25.2523C17.7521 22.0067 14.6484 19.9616 11.079 18.6944C8.53778 17.783 6.01595 16.7382 3.49413 15.7156C3.14495 15.5822 2.77638 15.3155 2.50479 15.0265C1.76765 14.204 1.98103 13.1369 2.91217 12.6923C3.61052 12.3589 4.27007 12.4478 4.94903 12.7368C6.46212 13.3592 7.95582 13.9594 9.46891 14.5819C10.0703 14.8264 10.691 15.0932 11.3118 15.2932C11.5252 15.3599 11.7774 15.271 12.0101 15.2488C11.9519 15.0042 11.9325 14.7153 11.8161 14.5374C9.15853 10.4248 6.46212 6.33449 3.80451 2.22192C3.62992 1.93292 3.41653 1.3994 3.53292 1.22156C3.70751 0.932568 4.13428 0.710266 4.46406 0.688036C5.2788 0.621346 5.93836 1.02149 6.46212 1.75508C7.83943 3.77802 9.21673 5.77874 10.6134 7.77945C10.7492 7.97952 10.9626 8.13513 11.1566 8.24628C11.273 8.31297 11.4282 8.20182 11.5834 8.15736C11.5446 8.00175 11.564 7.82391 11.4864 7.69053C11.2342 7.29038 10.9626 6.9347 10.691 6.53456C10.3031 5.95658 10.4776 5.42305 11.1178 5.3119C11.7968 5.20075 12.3981 5.44528 12.8637 6.0455C13.2904 6.60125 13.6978 7.17923 14.1052 7.75722C14.2022 7.8906 14.2798 8.06844 14.4156 8.13513C14.6096 8.22405 14.8423 8.24628 15.0751 8.29074C15.0169 8.06844 14.9975 7.82391 14.9005 7.64607C14.7066 7.31262 14.4544 7.04585 14.2604 6.73463C13.9694 6.22334 14.144 5.73428 14.6678 5.66758C15.3273 5.55643 15.9093 5.80097 16.3748 6.37895C16.8404 6.97916 17.2866 7.57938 17.7521 8.20182C17.8491 8.31297 17.9267 8.49081 18.0237 8.53527C18.2177 8.62419 18.4505 8.64642 18.6639 8.69088C18.6057 8.46858 18.5863 8.24628 18.4699 8.04621C18.3147 7.77945 18.0625 7.55715 17.9073 7.29038C17.7909 7.06808 17.6551 6.69017 17.7521 6.51233C17.8685 6.31226 18.2177 6.08996 18.4117 6.13442C18.8967 6.2678 19.4592 6.42341 19.7696 6.80132C21.1857 8.49081 22.5436 10.247 23.8821 12.0254C24.6193 13.0035 25.1236 14.1595 25.4534 15.4044C25.8996 17.0939 26.7143 18.5611 27.7036 19.8949C28.0722 20.4062 28.402 20.8508 28.79 21.3398Z" fill="white"/>
</svg>
